<svg t="1732271504759" class="icon" viewBox="0 0 1024 1024" version="1.1" xmlns="http://www.w3.org/2000/svg" p-id="24926" width="200" height="200"><path d="M555.927958 399.507242l-2.461541-1.969232v-1.23077a36.67695 36.67695 0 0 0-51.938499 2.46154l-73.846207 81.723136-98.461609-97.23084a36.553873 36.553873 0 0 0-51.692345 51.692345l124.307782 123.077012a29.538483 29.538483 0 0 0 7.38462 5.661543 28.307713 28.307713 0 0 0 5.661543 2.46154h3.200002a16.738474 16.738474 0 0 1 2.953849 0 22.153862 22.153862 0 0 0 5.661542 0 36.67695 36.67695 0 0 0 27.323097-11.815393l73.846207-82.215444 94.276991 94.030837a36.430796 36.430796 0 0 0 51.938499 0 34.707717 34.707717 0 0 0 0-50.461575z" p-id="24927" fill="#ffffff"></path><path d="M1009.589823 944.984558l-164.184734-164.184733a477.046498 477.046498 0 1 0-65.47697 65.230816l164.184734 164.184734A46.276956 46.276956 0 0 0 1009.589823 944.738404zM476.666362 879.261434A402.461829 402.461829 0 1 1 879.128191 476.799605 402.954137 402.954137 0 0 1 476.666362 879.261434z" p-id="24928" fill="#ffffff"></path></svg>